# xmcd CD database file
#
# Track frame offsets:
#	150
#	23910
#	45020
#	74992
#	102242
#	122230
#	143587
#	163230
#	186982
#	208935
#	232072
#	272087
#	290977
#
# Disc length: 4101 seconds
#
# Revision: 4
# Processed by: cddbd v1.5.1PL2 Copyright (c) Steve Scherf et al.
# Submitted via: CDex 1.51
#
DISCID=d210030d
DTITLE=さだまさし - さだまさしシングルス全集 第5巻[さだまさし篇] 其の四
DYEAR=1992
DGENRE=Folk
TTITLE0=軽井沢ホテル
TTITLE1=夢
TTITLE2=恋愛症候群 −その発病及び傾向と対策に関する一考察−
TTITLE3=カーテンコール
TTITLE4=Once Upon a Time
TTITLE5=The Best for You
TTITLE6=春女苑
TTITLE7=デイジー
TTITLE8=男は大きな川になれ 〜モルダウより〜
TTITLE9=チャンス
TTITLE10=風に立つライオン
TTITLE11=道 （はないちもんめ）
TTITLE12=遠い祭り
EXTD=YEAR: 1992
EXTT0=
EXTT1=
EXTT2=
EXTT3=
EXTT4=
EXTT5=
EXTT6=
EXTT7=
EXTT8=
EXTT9=
EXTT10=
EXTT11=
EXTT12=
PLAYORDER=
